<?xml version="1.0" encoding="UTF-8"?>
<!DOCTYPE svg PUBLIC "-//W3C//DTD SVG 1.1//EN" "http://www.w3.org/Graphics/SVG/1.1/DTD/svg11.dtd">
<svg version="1.1" xmlns="http://www.w3.org/2000/svg" xmlns:xlink="http://www.w3.org/1999/xlink" x="0" y="0" width="662.895" height="827.172" viewBox="0, 0, 662.895, 827.172">
  <defs>
    <clipPath id="Clip_1">
      <path d="M88.896,343.164 C84.762,323.796 93.267,309.429 95.73,304.593 C96.423,303.285 97.107,302.043 97.8,300.828 C98.814,299.091 98.304,299.955 99.348,298.233 C100.464,296.439 99.9,297.336 101.034,295.557 L101.94,294.216 C102.699,293.1 103.527,291.9 104.427,290.628 C107.91,285.792 112.176,280.845 115.014,277.635 C112.446,295.56 119.88,313.503 132.156,327.981 L143.583,325.86 C128.466,313.668 114.84,296.097 118.371,270.381 C120.819,273.792 125.799,282.156 134.13,291.681 C142.863,300.963 157.275,310.728 162.147,313.773 C165.06,314.979 168.534,316.353 172.803,317.649 C179.652,319.641 182.667,320.172 184.782,320.664 L192.831,315.156 C174.732,312.201 159.459,304.452 143.112,291.735 C136.482,286.788 130.416,281.217 125.091,275.343 C124.071,274.167 123.078,273.003 122.076,271.809 C120.987,270.525 120.219,269.877 119.292,268.317 C118.446,266.493 119.304,265.368 119.586,264.639 L119.211,265.371 C118.722,266.355 118.962,265.86 118.491,266.853 L118.146,267.6 C116.847,270.561 117.18,272.808 115.236,275.307 C114.648,275.949 113.031,277.371 112.398,277.929 C110.586,279.771 108.948,281.484 107.412,283.116 C105.264,285.468 102.414,288.336 97.182,295.188 C92.016,302.079 88.506,308.061 85.644,314.331 C83.823,318.489 78.171,332.637 80.403,347.571 z"/>
    </clipPath>
  </defs>
  <g id="dp_dp001">
    <path d="M233.844,630.207 C246.594,630.024 258.543,627.681 270.072,623.892 C288.09,617.784 314.439,604.809 324.504,580.8 C326.475,575.907 327.858,570.477 327.651,565.059 L318.744,569.979 C311.787,595.917 274.923,611.544 261.108,615.987 C251.715,618.921 241.995,620.901 231.555,621.273 C221.814,621.519 211.2,620.355 201.195,615.372 C186.654,607.809 180.6,594.789 178.335,582.804 L175.059,582.36 C176.982,615.441 201.768,630.387 233.844,630.207 z" fill="#6D2E2A" id="dp_path002"/>
    <path d="M410.712,355.56 C407.682,384.561 380.304,403.749 349.398,405.441 L342.714,394.332 C390.243,395.199 405.423,368.163 410.712,355.56 z" fill="#512D55" id="dp_path003"/>
    <path d="M407.655,366.636 C413.295,400.575 409.77,437.541 376.392,449.148 L381.222,461.397 C418.842,441.741 416.508,401.241 408.459,365.025 z" fill="#6B2C29" id="dp_path004"/>
    <path d="M215.427,331.659 C204.318,311.163 190.794,319.221 180.582,326.736 L176.148,321.195 C189.963,311.841 209.16,302.751 215.427,331.659 z" fill="#512D55" id="dp_path005"/>
    <path d="M88.896,343.164 C84.762,323.796 93.267,309.429 95.73,304.593 C96.423,303.285 97.107,302.043 97.8,300.828 C98.814,299.091 98.304,299.955 99.348,298.233 C100.464,296.439 99.9,297.336 101.034,295.557 L101.94,294.216 C102.699,293.1 103.527,291.9 104.427,290.628 C107.91,285.792 112.176,280.845 115.014,277.635 C112.446,295.56 119.88,313.503 132.156,327.981 L143.583,325.86 C128.466,313.668 114.84,296.097 118.371,270.381 C120.819,273.792 125.799,282.156 134.13,291.681 C142.863,300.963 157.275,310.728 162.147,313.773 C165.06,314.979 168.534,316.353 172.803,317.649 C179.652,319.641 182.667,320.172 184.782,320.664 L192.831,315.156 C174.732,312.201 159.459,304.452 143.112,291.735 C136.482,286.788 130.416,281.217 125.091,275.343 C124.071,274.167 123.078,273.003 122.076,271.809 C120.987,270.525 120.219,269.877 119.292,268.317 C118.446,266.493 119.304,265.368 119.586,264.639 L119.211,265.371 C118.722,266.355 118.962,265.86 118.491,266.853 L118.146,267.6 C116.847,270.561 117.18,272.808 115.236,275.307 C114.648,275.949 113.031,277.371 112.398,277.929 C110.586,279.771 108.948,281.484 107.412,283.116 C105.264,285.468 102.414,288.336 97.182,295.188 C92.016,302.079 88.506,308.061 85.644,314.331 C83.823,318.489 78.171,332.637 80.403,347.571 z" fill="#512D55" id="dp_path006"/>
    <g clip-path="url(#Clip_1)" id="dp_dp007">
      <path d="M116.907,268.383 C115.716,273.588 114.576,278.868 114.264,284.067 L97.302,316.857 L90.744,339.225 C85.371,341.397 80.403,343.443 75.366,345.615 L75.702,315.18 L103.002,275.655 z" fill="#6B2C29" id="dp_path008"/>
    </g>
    <path d="M223.098,593.373 C282.6,592.857 332.472,574.359 364.446,544.992 C377.1,533.139 387.936,518.04 392.934,500.385 C392.187,495.615 391.419,490.464 389.547,482.529 C388.083,476.532 386.955,473.079 386.439,471.381 C385.914,469.644 385.311,467.613 384.996,466.572 C383.604,462.129 382.131,457.788 380.532,453.504 C380.055,452.28 377.004,444.609 374.091,438.852 C369.783,430.092 360.276,410.508 350.382,397.797 L344.688,397.605 C348.135,403.407 350.307,407.445 353.247,412.971 L355.086,416.463 L357.168,420.489 L359.28,424.605 L363.642,433.137 C375.39,456.945 381.558,480.408 382.851,498.303 C374.079,530.055 345.24,549.264 321.018,560.22 C261.138,586.788 194.4,585.381 139.398,568.401 C75.198,548.088 18.18,499.761 8.808,441.696 C7.518,433.02 7.104,425.355 7.98,416.037 C8.322,412.545 7.794,408.813 11.394,400.341 C13.35,396.276 16.587,392.508 19.86,389.499 C23.13,386.388 26.139,383.523 32.103,378.819 C54.222,361.764 85.344,344.691 117.066,334.041 C129.39,330.009 140.538,327.387 150.426,325.392 C154.104,324.747 162.456,323.643 166.083,323.232 C157.728,323.205 153.348,323.763 146.739,324.633 C138.711,325.743 131.364,327.051 120.852,329.667 C94.959,336.279 71.775,345.813 45.9,361.884 C44.547,362.733 43.194,363.591 41.844,364.464 C37.695,367.161 33.564,369.984 29.199,373.209 C25.698,375.849 16.107,384.213 13.914,386.34 C9.768,390.372 6.027,395.1 3.756,399.471 C1.056,405.633 1.059,410.625 0.699,413.499 C-0.228,421.356 -0.108,432.192 1.254,441.609 C4.098,460.065 10.32,477.183 22.728,495.459 C46.047,529.164 91.239,568.245 155.904,585.171 C178.899,591.048 201.495,593.412 223.098,593.373 z" fill="#512D55" id="dp_path009"/>
    <path d="M408.843,360.507 C377.148,367.944 350.304,371.952 326.832,363.945 C306.687,358.197 282.282,319.389 208.194,317.376 L211.62,322.887 C273.027,323.655 307.959,365.793 325.182,370.593 C348.051,378.681 375.348,372.159 408.087,362.976 z" fill="#512D55" id="dp_path010"/>
    <path d="M89.079,354.885 C96.702,387.837 132.147,388.665 156.303,399.195 L151.104,405.531 C135.312,394.575 90.366,395.436 89.079,354.885 z" fill="#2D2B2D" id="dp_path011"/>
    <path d="M151.671,401.553 C141.039,398.256 129.426,394.548 115.398,387.879 C112.647,386.541 109.818,385.077 106.836,383.391 C91.995,374.715 82.104,365.139 79.248,349.896 C75.918,378.828 102.339,395.295 118.338,400.851 L125.43,397.176 L141.159,402.063 L146.61,404.568 z" fill="#2D2B2D" id="dp_path012"/>
    <path d="M161.292,395.688 C165.894,391.323 165.759,390.552 167.208,388.383 C168.771,385.968 170.088,383.64 171.303,381.336 C176.898,370.425 180.978,360.405 183.051,346.029 C183.531,342.216 184.116,337.695 182.352,334.545 L176.163,336.18 C176.592,336.957 177.06,337.125 175.338,337.332 C174.09,337.503 172.863,337.704 171.639,337.92 C167.4,338.751 163.344,339.888 159.366,341.28 C145.719,346.263 126.39,356.568 115.308,373.671 C124.056,364.176 147.351,341.913 177.144,339.6 C177.882,345.984 176.916,349.845 176.28,353.793 C174.642,363.399 172.338,371.247 169.272,379.38 C167.934,382.809 166.458,386.232 164.64,389.799 C163.854,391.287 163.008,392.784 162.054,394.335 C161.343,395.439 161.706,394.887 160.98,395.979 z" fill="#512D55" id="dp_path013"/>
    <path d="M260.331,353.844 C270.939,356.907 276.375,385.899 276.96,423.9 L275.214,424.56 C270.36,369 264.822,360.105 259.923,358.617 C242.1,358.149 212.535,396.573 207.495,416.019 C212.334,386.871 248.526,349.677 260.331,353.844 z" fill="#512D55" id="dp_path014"/>
    <path d="M320.727,416.799 C260.652,447.648 226.41,440.253 211.791,418.869 L222.762,419.505 C238.842,435.336 273.159,432.351 320.727,416.799 z" fill="#2D2B2D" id="dp_path015"/>
    <path d="M211.71,416.061 L223.743,417.444 C238.71,427.584 271.887,433.824 304.08,412.605 C279.291,439.815 230.052,441.669 211.71,416.061 z" fill="#2D2B2D" id="dp_path016"/>
    <path d="M246.396,342.375 C256.278,332.484 273.984,330.879 278.943,359.655 L283.338,353.376 C278.388,325.92 257.346,319.131 246.396,342.375 z" fill="#512D55" id="dp_path017"/>
    <path d="M113.886,467.637 C114.588,450.264 123.072,437.973 136.767,429.072 L132.744,426.957 C123.63,431.901 113.103,445.44 113.886,467.637 z" fill="#512D55" id="dp_path018"/>
    <path d="M252.936,456.519 C141.444,525.075 76.35,483.003 55.758,407.424 L57.795,405.879 L57.795,406.092 C61.152,415.272 97.623,541.389 251.451,455.247 z" fill="#512D55" id="dp_path019"/>
    <path d="M57.423,402.192 C51.675,403.935 43.494,410.736 47.259,420.447 C48.102,411.684 53.439,409.107 58.41,408.129 C57.639,405.777 57.471,404.292 57.423,402.192 z" fill="#512D55" id="dp_path020"/>
    <path d="M252.096,451.56 C257.607,454.527 264.543,463.164 258.696,472.305 C259.647,463.185 254.73,459.447 249.858,457.416 C251.136,455.175 251.607,453.693 252.096,451.56 z" fill="#512D55" id="dp_path021"/>
    <path d="M117.306,541.935 C133.359,565.197 156.636,584.259 214.962,567.699 C183.924,592.572 145.095,585.999 116.106,551.823 z" fill="#512D55" id="dp_path022"/>
    <path d="M158.64,678.291 C156.084,697.155 155.7,715.488 180.264,745.632 L183.354,744.744 C171.03,728.436 164.712,707.481 166.242,684.312 z" fill="#512D55" id="dp_path023"/>
    <path d="M379.191,762.009 C274.503,763.776 266.811,718.896 212.946,706.524 C267.966,724.329 244.683,765.12 380.046,768.024 C395.394,767.208 411.51,764.895 430.698,758.325 L415.974,757.608 C405.204,760.857 390.918,761.649 379.191,762.009 z" fill="#512D55" id="dp_path024"/>
    <path d="M284.994,745.647 C321.651,757.179 375.33,763.128 413.763,748.647 C429.315,756.315 450.588,755.211 472.08,746.913 C454.608,759.408 432.918,760.167 415.023,758.892 L400.212,764.565 L372.156,763.932 L337.95,763.305 L307.848,755.739 L288.303,749.748 z" fill="#512D55" id="dp_path025"/>
    <path d="M144.975,642.939 C136.896,662.199 119.1,615.195 125.367,574.587 L118.323,571.161 C107.019,620.388 141.048,679.401 144.975,642.939 z" fill="#512D55" id="dp_path026"/>
    <path d="M141.36,649.791 L141.36,649.221 C143.166,657.345 148.815,671.043 170.871,684.444 L164.97,684.444 C154.923,678.528 145.239,673.707 136.791,651.504 z" fill="#512D55" id="dp_path027"/>
    <path d="M206.55,803.7 C103.683,798.735 137.739,720.48 241.926,741.972 L237.42,745.128 C173.091,730.011 106.923,779.061 191.007,793.563 z" fill="#512D55" id="dp_path028"/>
    <path d="M477.816,768.609 L468.351,771.993 C513.78,848.619 222.855,821.649 328.776,762.867 L319.986,760.5 C209.331,836.793 530.19,858.396 477.816,768.609 z" fill="#512D55" id="dp_path029"/>
    <path d="M199.212,703.119 C190.875,702.363 178.68,698.331 171.822,693.291 L175.218,688.491 C181.995,693.201 190.836,697.047 200.736,700.197 z" fill="#512D55" id="dp_path030"/>
    <path d="M243.816,810.741 C264.003,810.528 272.703,807.9 279.246,806.568 C286.911,804.936 294.507,803.016 302.31,800.772 L297.351,789.285 C271.119,798.597 233.13,805.191 198.69,790.845 L191.244,793.707 C206.022,807.813 226.464,810.831 243.816,810.741 z" fill="#512D55" id="dp_path031"/>
    <path d="M192.243,754.329 C192.843,761.952 168.294,772.671 190.563,786.369 L181.002,784.044 C163.155,771.483 188.379,759.993 192.243,754.329 z" fill="#512D55" id="dp_path032"/>
    <path d="M339.627,774.516 C340.32,783.288 312.066,795.624 337.692,811.389 L326.691,808.713 C306.156,794.256 335.178,781.035 339.627,774.516 z" fill="#512D55" id="dp_path033"/>
    <path d="M393.066,787.155 C393.384,796.731 373.563,810.573 376.86,820.713 L386.532,821.28 C381.774,809.373 398.418,796.479 393.066,787.155 z" fill="#512D55" id="dp_path034"/>
    <path d="M236.046,762.693 L237.927,762.801 C230.1,769.173 225.984,777.324 228.855,789.141 L221.766,788.151 C214.599,774.915 228.318,770.043 236.046,762.693 z" fill="#512D55" id="dp_path035"/>
    <path d="M238.683,744.045 L244.35,740.289 C210.798,729.291 200.694,735.483 197.082,741.129 L206.028,741.324 L218.664,741.612 L228.186,742.101 L233.532,742.977 z" fill="#512D55" id="dp_path036"/>
    <path d="M468.819,773.229 L479.742,783.429 C834.675,595.383 595.146,228.459 413.094,408.993 L411.267,411.177 L409.812,424.287 C411.468,421.737 415.563,417.825 422.079,412.353 C582.723,244.101 816.96,593.175 468.819,773.229 z" fill="#512D55" id="dp_path037"/>
    <path d="M547.152,795.192 C553.347,795.141 560.934,795.108 570.678,793.983 C577.11,793.161 586.62,791.151 587.886,790.875 C591.69,790.017 603.642,787.128 613.416,782.715 C618.174,780.492 619.383,779.916 624.114,776.649 C646.455,760.692 631.494,737.685 621.384,728.469 C617.523,725.076 612.75,722.064 607.452,719.577 C595.998,714.42 583.995,712.113 569.211,711.708 C568.47,712.32 567.726,712.92 567,713.541 L567.99,713.571 C581.835,714.225 613.503,718.239 626.922,741.444 C629.814,746.643 631.434,752.667 630.111,758.667 C625.947,774.753 602.91,780.864 599.715,781.956 L598.062,782.493 C590.862,784.728 582.987,786.477 574.482,787.653 C569.016,788.355 559.842,789.084 558.276,789.195 L553.14,789.045 C543.552,788.724 528.324,787.161 518.754,784.827 C512.691,783.264 500.976,778.308 492.936,768.657 L481.122,776.223 C493.332,794.832 524.403,794.352 528.354,794.703 C530.31,794.856 529.332,794.784 531.291,794.916 C534.834,795.117 541.611,795.207 542.967,795.207 z" fill="#512D55" id="dp_path038"/>
    <path d="M558.99,786.429 C564.912,772.281 555.936,761.436 553.08,758.028 L547.626,755.625 C555.603,759.96 556.251,780.405 550.203,787.137 z" fill="#512D55" id="dp_path039"/>
    <path d="M557.763,370.179 L547.524,367.383 C587.415,218.835 468.048,102.345 435.372,86.769 C403.626,70.92 336.795,125.247 319.17,151.107 L303.672,144.909 C336.342,100.455 409.635,59.736 440.694,78.252 C507.702,121.053 592.275,241.653 557.763,370.179 z" fill="#512D55" id="dp_path040"/>
    <path d="M611.52,400.557 L598.29,392.361 C727.584,-48.708 224.103,-99.42 190.158,188.685 C176.136,396.264 453.612,265.056 304.227,143.688 L319.926,146.823 C462.384,267.591 162.474,427.212 178.647,191.82 C185.667,-83.808 745.734,-101.421 611.52,400.557 z" fill="#512D55" id="dp_path041"/>
    <path d="M154.752,429.627 C147.027,429.627 142.419,428.076 140.799,427.656 C138.063,426.897 128.547,424.251 121.395,416.811 C120.264,415.596 111.939,405.849 121.062,401.991 C124.53,400.719 128.448,401.409 132.228,402.24 C140.43,404.193 145.908,406.416 152.01,409.404 C152.715,409.761 155.652,411.192 159.018,413.496 C164.388,417.279 169.71,423.252 164.322,427.332 C160.932,429.681 157.323,429.585 154.752,429.627 z M153.78,433.812 C158.526,433.692 175.488,431.703 169.467,418.884 C168.366,416.736 166.968,415.101 165.543,413.664 C156.759,405.267 143.682,400.836 131.727,397.959 C128.355,397.2 123.603,395.661 117.756,397.377 C107.655,400.716 111.912,412.449 114.135,416.109 C122.916,429.795 141.147,433.911 153.78,433.812 z" fill="#6D2E2A" id="dp_path042"/>
    <path d="M592.626,717.336 L585.672,714.963 L575.406,712.437 L557.55,726.183 L524.223,748.455 L517.431,757.461 C543.792,745.491 571.224,735.231 592.626,717.336 z" fill="#522C52" id="dp_path043"/>
    <path d="M590.184,752.088 C604.056,758.073 613.083,768.744 610.086,780.141 L599.526,777.441 C603.531,767.409 602.115,761.151 590.184,752.088 z" fill="#512D55" id="dp_path044"/>
  </g>
</svg>
